# xmcd
#
# Track frame offsets: 
#        180
#        14223
#        29657
#        43132
#        64251
#        76995
#        89551
#        103643
#        116308
#        128458
#        140896
#        153663
#        167157
#        182520
#        195483
#        207974
#        221055
#        233001
#        244869
#        258573
#        273066
#        286347
#        300648
#        310870
#
# Disc length: 4344 seconds
#
# Revision: 0
# Processed by: cddbd v1.5.2PL0 Copyright (c) Steve Scherf et al.
# Submitted via: ExactAudioCopy v0.95b4
#
DISCID=5f10f618
DTITLE=Various Artist - Blues Generations Vol. 2 [CD 1]
DYEAR=2006
DGENRE=Blues
TTITLE0=Bessie Smith - Bleading Hearted Blues
TTITLE1=Big Bill Bronzy - Friendless Blues
TTITLE2=Leadbelly - Death Letter Blues
TTITLE3=Big Bill Bronzy - I Got Up One Mornin' Blues
TTITLE4=Sleepy John Estes - New Someday Baby
TTITLE5=Sonny Terry - Train Whistle Blues
TTITLE6=Sleepy John Estes - Brownsville Blues
TTITLE7=Brownie Mc Ghee - Be Good To Me
TTITLE8=Brother George and His Sanctified - Singers Twelve Gates To The 
TTITLE8=City
TTITLE9=Leadbelly - Eagle Rock Rag
TTITLE10=John Lee Williamson - Train Fare Blues
TTITLE11=Leadbelly - Pick A Ball Of Cotton
TTITLE12=Muddy Waters - Country Blues
TTITLE13=Brownie Mc Ghee - Ain't No Tellin'
TTITLE14=Big Joe Williams - I'm Getting Wild About Her
TTITLE15=T-Bone Walker - Mean Old World
TTITLE16=T-Bone Walker - Bobby Sox Blues
TTITLE17=John Lee Hooker - Howling Wolf
TTITLE18=T-Bone Walker - Hard Pain Blues Goldberg - J. L. Crainer - T.
TTITLE18=Bone
TTITLE19=John Lee Hooker - Don't Go Baby
TTITLE20=John Lee Hooker - Momma Poppa Boogie
TTITLE21=John Lee Hooker - Grinder Man
TTITLE22=John Lee Hooker - Hey Boogie
TTITLE23=Muddy Waters - Honey Bee
EXTD=
EXTT0=
EXTT1=
EXTT2=
EXTT3=
EXTT4=
EXTT5=
EXTT6=
EXTT7=
EXTT8=
EXTT9=
EXTT10=
EXTT11=
EXTT12=
EXTT13=
EXTT14=
EXTT15=
EXTT16=
EXTT17=
EXTT18=
EXTT19=
EXTT20=
EXTT21=
EXTT22=
EXTT23=
PLAYORDER=
